HIERARCHY
ROOT Hips
{
	OFFSET 0.000000 0.000000 0.000000
	CHANNELS 6 Xposition Yposition Zposition Xrotation Yrotation Zrotation
	JOINT LeftUpLeg_virtual
	{
		OFFSET 0.000000 0.000000 0.000000
		CHANNELS 3 Xrotation Yrotation Zrotation
		JOINT LeftUpLeg
		{
			OFFSET 11.394100 -6.187798 -0.413800
			CHANNELS 3 Xrotation Yrotation Zrotation
			JOINT LeftLeg
			{
				OFFSET 0.430247 -32.302673 3.732800
				CHANNELS 3 Xrotation Yrotation Zrotation
				JOINT LeftFoot
				{
					OFFSET -0.430247 -48.264931 -6.423300
					CHANNELS 3 Xrotation Yrotation Zrotation
					JOINT LeftToeBase
					{
						OFFSET 4.230900 -16.068199 23.438400
						CHANNELS 3 Xrotation Yrotation Zrotation
						JOINT LeftToe_End
						{
							OFFSET 4.510700 0.695400 19.974600
							CHANNELS 3 Xrotation Yrotation Zrotation
							End Site
							{
								OFFSET 0 0 0
							}
						}
					}
				}
			}
		}
	}
	JOINT RightUpLeg_virtual
	{
		OFFSET 0.000000 0.000000 0.000000
		CHANNELS 3 Xrotation Yrotation Zrotation
		JOINT RightUpLeg
		{
			OFFSET -11.333700 -6.187798 -0.413800
			CHANNELS 3 Xrotation Yrotation Zrotation
			JOINT RightLeg
			{
				OFFSET -0.430392 -32.302628 3.733000
				CHANNELS 3 Xrotation Yrotation Zrotation
				JOINT RightFoot
				{
					OFFSET 0.430392 -48.264973 -6.423500
					CHANNELS 3 Xrotation Yrotation Zrotation
					JOINT RightToeBase
					{
						OFFSET -4.230900 -16.068199 23.438400
						CHANNELS 3 Xrotation Yrotation Zrotation
						JOINT RightToe_End
						{
							OFFSET -4.510700 0.695400 19.974600
							CHANNELS 3 Xrotation Yrotation Zrotation
							End Site
							{
								OFFSET 0 0 0
							}
						}
					}
				}
			}
		}
	}
	JOINT Spine_virtual
	{
		OFFSET 0.000000 0.000000 0.000000
		CHANNELS 3 Xrotation Yrotation Zrotation
		JOINT Spine
		{
			OFFSET -0.002400 12.777504 0.315300
			CHANNELS 3 Xrotation Yrotation Zrotation
			JOINT Spine1
			{
				OFFSET -0.002067 5.816869 0.032633
				CHANNELS 3 Xrotation Yrotation Zrotation
				JOINT Spine1_split
				{
					OFFSET -0.002067 5.816869 0.032633
					CHANNELS 3 Xrotation Yrotation Zrotation
					JOINT Spine2
					{
						OFFSET -0.002067 5.816869 0.032633
						CHANNELS 3 Xrotation Yrotation Zrotation
						JOINT Neck_virtual
						{
							OFFSET 0.000000 0.000000 0.000000
							CHANNELS 3 Xrotation Yrotation Zrotation
							JOINT Neck
							{
								OFFSET -0.003700 21.199493 -0.826900
								CHANNELS 3 Xrotation Yrotation Zrotation
								JOINT Head
								{
									OFFSET 0.000000 20.442200 4.834800
									CHANNELS 3 Xrotation Yrotation Zrotation
									JOINT HeadTop_End
									{
										OFFSET 0.000000 34.668396 4.968400
										CHANNELS 3 Xrotation Yrotation Zrotation
										End Site
										{
											OFFSET 0 0 0
										}
									}
								}
							}
						}
						JOINT LeftShoulder_virtual
						{
							OFFSET 0.000000 0.000000 0.000000
							CHANNELS 3 Xrotation Yrotation Zrotation
							JOINT LeftShoulder
							{
								OFFSET 3.288150 8.794197 -1.372250
								CHANNELS 3 Xrotation Yrotation Zrotation
								JOINT LeftShoulder_split
								{
									OFFSET 3.288150 8.794197 -1.372250
									CHANNELS 3 Xrotation Yrotation Zrotation
									JOINT LeftArm
									{
										OFFSET 11.953299 -2.279007 -0.146200
										CHANNELS 3 Xrotation Yrotation Zrotation
										JOINT LeftForeArm
										{
											OFFSET 18.448900 0.000000 0.000000
											CHANNELS 3 Xrotation Yrotation Zrotation
											JOINT LeftHand
											{
												OFFSET 29.527798 0.000000 0.000000
												CHANNELS 3 Xrotation Yrotation Zrotation
												End Site
												{
													OFFSET 0 0 0
												}
											}
										}
									}
								}
							}
						}
						JOINT RightShoulder_virtual
						{
							OFFSET 0.000000 0.000000 0.000000
							CHANNELS 3 Xrotation Yrotation Zrotation
							JOINT RightShoulder
							{
								OFFSET -3.249400 8.794197 -1.372250
								CHANNELS 3 Xrotation Yrotation Zrotation
								JOINT RightShoulder_split
								{
									OFFSET -3.249400 8.794197 -1.372250
									CHANNELS 3 Xrotation Yrotation Zrotation
									JOINT RightArm
									{
										OFFSET -11.953299 -2.279007 -0.146200
										CHANNELS 3 Xrotation Yrotation Zrotation
										JOINT RightForeArm
										{
											OFFSET -18.448900 0.000000 0.000000
											CHANNELS 3 Xrotation Yrotation Zrotation
											JOINT RightHand
											{
												OFFSET -29.527802 0.000000 0.000000
												CHANNELS 3 Xrotation Yrotation Zrotation
												End Site
												{
													OFFSET 0 0 0
												}
											}
										}
									}
								}
							}
						}
					}
				}
			}
		}
	}
}
MOTION
Frames: 5
Frame Time: 0.03333333
4.054265 104.353951 -13.106979 0.000000 0.000000 0.000000 -1.372385 9.861403 4.205304 -5.111031 17.612444 5.803743 9.735250 5.382105 1.880309 -1.582373 2.094207 -10.031981 1.786512 -2.748407 -0.440716 0.000000 0.000000 0.000000 -0.776835 10.967225 3.935645 -4.913256 -6.859323 -4.496333 9.634632 -1.620982 -2.339785 -8.657151 -11.660944 12.664049 7.352653 5.237567 -19.930154 0.000000 0.000000 0.000000 -3.302496 15.199278 3.784922 2.745795 -4.088250 -1.933092 1.329638 -0.561729 0.529527 0.132193 0.159843 -0.057912 0.000000 0.000000 0.000000 1.269889 2.000187 0.184704 1.059068 6.421232 4.278355 2.880764 -13.231170 -1.765271 0.000000 0.000000 0.000000 0.137755 0.760210 -0.276793 1.075555 -1.371777 -17.359865 3.522186 -3.541623 -0.922093 1.255071 -6.031631 -32.593448 2.188378 -59.222275 -0.204160 0.000000 0.000000 0.000000 1.380439 0.933349 -0.021495 -2.111818 2.325248 21.605577 -1.573812 -2.303591 0.518213 -0.964454 5.849749 54.299475 2.522225 11.716328 2.421909 0.000000 0.000000 0.000000 
4.080579 104.358047 -13.042686 0.000000 0.000000 0.000000 -1.387012 9.924044 4.218708 -5.123490 17.693928 5.811810 9.690024 5.389730 1.880423 -1.559762 2.080917 -10.028401 1.804594 -2.739845 -0.485902 0.000000 0.000000 0.000000 -0.785435 11.023988 3.951617 -4.855565 -6.820074 -4.517060 9.624095 -1.615645 -2.338743 -8.655120 -11.634048 12.694555 7.272147 5.257476 -19.973092 0.000000 0.000000 0.000000 -3.362578 15.219734 3.801553 2.763311 -4.090474 -1.917121 1.299555 -0.544854 0.543693 0.130364 0.163502 -0.062640 0.000000 0.000000 0.000000 1.286462 2.016481 0.201652 1.047209 6.393611 4.277851 2.911939 -13.374059 -1.819008 0.000000 0.000000 0.000000 0.105445 0.784706 -0.283893 1.117599 -1.343597 -17.351003 3.377608 -3.700221 -0.928765 1.394717 -5.994906 -32.530101 2.153897 -59.226210 -0.250375 0.000000 0.000000 0.000000 1.350939 0.948905 -0.013955 -2.100572 2.180856 21.513496 -1.880900 -2.360003 0.582750 -0.955060 6.080962 53.848511 2.556170 11.094520 2.505857 0.000000 0.000000 0.000000 
4.123432 104.365219 -12.999130 0.000000 0.000000 0.000000 -1.402228 10.086352 4.252794 -5.124968 17.737675 5.799253 9.609309 5.373689 1.864810 -1.518698 2.027831 -9.997579 1.814625 -2.721399 -0.494993 0.000000 0.000000 0.000000 -0.817250 11.164072 3.987014 -4.723104 -6.857989 -4.545899 9.592360 -1.633360 -2.332532 -8.698573 -11.624889 12.727500 7.191119 5.287999 -19.943918 0.000000 0.000000 0.000000 -3.420600 15.350705 3.836142 2.800880 -4.097481 -1.879324 1.251098 -0.521055 0.513271 0.110287 0.171398 -0.062061 0.000000 0.000000 0.000000 1.267925 2.029449 0.177775 1.004405 6.391185 4.341284 2.967280 -13.327754 -1.722309 0.000000 0.000000 0.000000 0.045563 0.812247 -0.340100 1.189075 -1.238792 -17.258206 3.228134 -3.848931 -0.947346 1.451687 -5.984181 -32.481801 2.344512 -59.226865 -0.098768 0.000000 0.000000 0.000000 1.292468 0.965172 -0.040663 -2.035726 2.155759 21.237304 -2.114028 -2.302365 0.699947 -0.822419 6.249886 53.472260 2.415956 10.570841 2.648928 0.000000 0.000000 0.000000 
4.184034 104.373726 -12.980114 0.000000 0.000000 0.000000 -1.422234 10.327992 4.302607 -5.129499 17.738478 5.763016 9.523136 5.336601 1.837761 -1.470851 1.940583 -9.935267 1.859106 -2.693530 -0.469658 0.000000 0.000000 0.000000 -0.858226 11.372396 4.035466 -4.546772 -6.962189 -4.591091 9.556510 -1.671761 -2.316846 -8.774560 -11.631455 12.767031 7.116775 5.328015 -19.856992 0.000000 0.000000 0.000000 -3.472061 15.572239 3.879850 2.864208 -4.111374 -1.820495 1.192901 -0.489616 0.444501 0.091809 0.180719 -0.057865 0.000000 0.000000 0.000000 1.220054 2.042361 0.119210 0.926450 6.420321 4.459345 3.029173 -13.092796 -1.498914 0.000000 0.000000 0.000000 -0.039665 0.843586 -0.434336 1.277378 -1.067714 -17.095905 3.122613 -3.978382 -0.917936 1.437201 -5.979127 -32.461577 2.759333 -59.214646 0.249485 0.000000 0.000000 0.000000 1.216779 0.986126 -0.100475 -1.928538 2.218416 20.789583 -2.246229 -2.245040 0.856035 -0.562523 6.347692 53.230594 2.107933 10.390517 2.828243 0.000000 0.000000 0.000000 
4.250761 104.376984 -12.983330 0.000000 0.000000 0.000000 -1.443408 10.632861 4.365581 -5.152747 17.687340 5.704281 9.452651 5.282384 1.809137 -1.434467 1.830233 -9.833967 1.968449 -2.654461 -0.420475 0.000000 0.000000 0.000000 -0.894737 11.639445 4.091099 -4.356853 -7.116453 -4.655870 9.532900 -1.723711 -2.289020 -8.866629 -11.641971 12.822303 7.038932 5.379924 -19.733933 0.000000 0.000000 0.000000 -3.508142 15.862800 3.924192 2.958862 -4.135657 -1.742826 1.135264 -0.449257 0.347763 0.086503 0.185190 -0.050307 0.000000 0.000000 0.000000 1.156758 2.064177 0.033240 0.791577 6.478843 4.606962 3.040392 -12.687228 -1.206414 0.000000 0.000000 0.000000 -0.131033 0.876437 -0.548464 1.369841 -0.855173 -16.873286 3.031966 -4.117701 -0.848282 1.364089 -5.964181 -32.483369 3.371334 -59.188234 0.768503 0.000000 0.000000 0.000000 1.137179 1.013177 -0.185527 -1.796334 2.345886 20.171340 -2.349462 -2.320118 1.032613 -0.054084 6.394176 53.121783 1.653190 10.891295 3.020456 0.000000 0.000000 0.000000 
